<svg width="20" height="13" viewBox="0 0 20 13" fill="none" xmlns="http://www.w3.org/2000/svg">
<path d="M4.15939 7.85455L3.34598 9.25721C3.06176 9.1902 2.83529 9.01227 2.65043 8.70955C2.55569 8.55242 2.56262 8.34214 2.66892 8.17344L2.94622 7.73901C2.94622 7.73671 2.94853 7.73671 2.94853 7.7344L2.98319 7.67894C3.0918 7.51025 3.27897 7.4132 3.45921 7.43169C3.75961 7.46173 3.98608 7.59806 4.15939 7.85455Z" fill="#223469"/>
<path d="M6.1469 8.73944L4.91295 10.6066C4.11109 10.5049 3.92623 10.0982 3.88232 9.71692L4.82975 8.08318C5.21566 7.75503 5.64778 7.77584 5.9089 7.94915C6.16539 8.11783 6.25089 8.40437 6.1469 8.73944Z" fill="#223469"/>
<path d="M7.5101 10.2507L6.51646 11.6233C6.03581 11.6002 5.70306 11.3969 5.48584 10.9971L6.66897 9.20854C6.99478 9.16695 7.25591 9.22702 7.40611 9.39109C7.57248 9.57364 7.60946 9.88561 7.5101 10.2507Z" fill="#223469"/>
<path d="M8.52443 11.6396L8.29565 12.0186C8.1755 12.2173 7.96521 12.3421 7.73182 12.3513C7.49381 12.3606 7.2997 12.2589 7.16798 12.0763C7.1495 12.0486 7.1287 12.0186 7.10791 11.9885L8.03223 10.7107C8.33956 10.6575 8.44354 10.7476 8.51287 10.8401C8.67925 11.055 8.68388 11.3785 8.52443 11.6396Z" fill="#223469"/>
<path d="M16.5153 8.42983C16.3535 8.68401 16.0508 8.82728 15.5956 8.86887L13.0029 7.25825C12.8411 7.15888 12.6262 7.2074 12.5268 7.36916C12.4252 7.53323 12.476 7.74582 12.6378 7.8475L15.1681 9.41884C15.1611 9.65455 15.1057 9.83478 14.9901 9.95958C14.8307 10.1329 14.5419 10.2276 14.1351 10.2461L11.9861 9.03526C11.8197 8.9405 11.6094 8.99827 11.5147 9.16697C11.42 9.33334 11.48 9.54364 11.6464 9.63837L13.6869 10.7891C13.6337 11.0988 13.4049 11.4108 12.5985 11.5194L10.6019 10.5673C10.4286 10.4841 10.223 10.5581 10.1398 10.7314C10.0566 10.9047 10.1305 11.1104 10.3038 11.1935L12.1941 12.0948C12.164 12.2819 12.0439 12.3836 11.7943 12.446C11.6187 12.4922 11.4176 12.4853 11.2027 12.4321L9.16462 11.9099C9.4165 11.42 9.38184 10.8331 9.06295 10.4171C8.82263 10.1052 8.5176 10.0104 8.25416 10.0012C8.28189 9.57366 8.16635 9.1947 7.9168 8.92203C7.66723 8.64704 7.30906 8.50377 6.88386 8.49683C6.88849 8.0393 6.6782 7.62566 6.28999 7.36916C5.87636 7.09649 5.2432 7.0133 4.65395 7.35761C4.36971 6.99944 3.98613 6.78683 3.52858 6.74293C3.21663 6.71059 2.90699 6.81456 2.66434 7.01099L2.09358 6.25766C1.90178 6.00348 1.6476 5.80013 1.36106 5.67534L0 5.07222L0.97515 0L4.24031 1.52514C4.97053 1.84864 5.7354 2.08666 6.56497 2.25072C6.32003 2.61352 6.07277 2.97632 5.8209 3.35067C5.69611 3.53554 5.63141 3.74813 5.63141 3.96996C5.63141 4.47603 5.9711 4.9174 6.45406 5.0468C6.68514 5.1092 6.92777 5.09763 7.15885 5.00752C7.82899 4.74409 8.43903 4.21953 9.02367 3.40844L9.91794 3.15425L12.7926 4.70018L16.1594 7.69037C16.164 7.69268 16.1686 7.69729 16.1733 7.6996L16.4321 7.93068C16.5777 8.06009 16.6146 8.27499 16.5153 8.42983Z" fill="#223469"/>
<path d="M20 5.36592L18.7106 5.66401C18.394 5.73564 18.0959 5.88354 17.8487 6.09381C17.4189 6.45661 16.9613 6.76164 16.4529 7.02276L13.2224 4.15506C13.204 4.13657 13.1808 4.1227 13.1577 4.10884L10.1213 2.47741C10.0705 2.44968 10.015 2.43582 9.95728 2.43582C9.92494 2.43582 9.89258 2.44043 9.86254 2.44968L8.71638 2.7755C8.64013 2.79862 8.57311 2.84482 8.52689 2.91184C8.00235 3.66517 7.47087 4.13888 6.90933 4.36071C6.81922 4.39769 6.72447 4.40232 6.63435 4.3792C6.41944 4.32143 6.32471 4.13194 6.32471 3.97018C6.32471 3.887 6.34781 3.80612 6.39634 3.7368C6.74989 3.21687 7.09421 2.70618 7.4362 2.1978L7.44083 2.19317C7.44083 2.19087 7.44083 2.19087 7.44313 2.19087L7.49166 2.11693C7.51476 2.08457 7.53556 2.05222 7.55405 2.02449C7.77819 1.69405 8.13175 1.46065 8.52228 1.38902C9.50898 1.20878 10.4772 1.12328 11.4038 1.13715C11.5101 1.13715 11.628 1.15331 11.7551 1.18335L13.8833 1.68942C14.193 1.76105 14.5188 1.76799 14.8331 1.71254L15.4986 1.58774C15.6603 1.5577 15.8221 1.5115 15.9792 1.44447L18.9994 0.159668L20 5.36592Z" fill="#223469"/>
</svg>
